<svg width="71" height="71" viewBox="0 0 71 71" fill="none" xmlns="http://www.w3.org/2000/svg">
<path d="M30.4369 0.586963C13.6531 0.586963 0 14.2401 0 31.0239C0 47.8077 13.6531 61.4609 30.4369 61.4609C35.5677 61.4609 40.6116 60.2434 44.8728 57.8954C45.2141 58.3061 45.5925 58.6846 46.0033 59.0259L54.6995 67.7222C55.5025 68.6257 56.4817 69.3556 57.577 69.867C58.6723 70.3784 59.8605 70.6606 61.0688 70.6962C62.2771 70.7317 63.4799 70.52 64.6033 70.0739C65.7268 69.6278 66.7472 68.9567 67.602 68.102C68.4567 67.2472 69.1278 66.2268 69.5739 65.1033C70.02 63.9799 70.2317 62.7771 70.1962 61.5688C70.1606 60.3605 69.8784 59.1723 69.367 58.077C68.8556 56.9817 68.1257 56.0025 67.2222 55.1995L58.5259 46.5033C58.1023 46.0795 57.636 45.7007 57.1345 45.3728C59.4825 41.1116 60.9609 36.1547 60.9609 30.9369C60.9609 14.1531 47.3077 0.5 30.5239 0.5L30.4369 0.586963ZM30.4369 9.28323C42.5248 9.28323 52.1776 18.9361 52.1776 31.0239C52.1776 36.7634 50.0905 42.0682 46.4381 45.9815C46.3511 46.0685 46.2642 46.1554 46.1772 46.2424C45.7664 46.5837 45.388 46.9621 45.0467 47.3729C41.2203 50.8514 36.0026 52.8515 30.35 52.8515C18.2622 52.8515 8.60931 43.1987 8.60931 31.1109C8.60931 19.0231 18.2622 9.3702 30.35 9.3702L30.4369 9.28323Z" fill="white"/>
</svg>
